Coordinates
version=1
nRows=21
nColumns=12
inDegrees=yes

Units are S.I. units (second, meters, Newtons, ...)
Angles are in degrees

endheader
time	SC_y	SC_z	SC_x	AC_y	AC_z	AC_x	GH_y	GH_z	GH_yy	EL_x	PS_y
       0.0              -19.92          13.11          74.29          35.49         -10.34         -6.717          82.79         -7.394         -14.19          11.68          40.93
  0.002052              -19.92          13.11          74.29           35.5         -10.34         -6.716          82.79         -7.392         -14.17          11.69          40.93
  0.004105              -19.92          13.11          74.29           35.5         -10.33         -6.714           82.8         -7.389         -14.14           11.7          40.93
  0.006157              -19.92          13.11          74.29          35.51         -10.33         -6.713           82.8         -7.387         -14.11          11.71          40.93
   0.00821              -19.93          13.11          74.29          35.51         -10.33         -6.711           82.8         -7.384         -14.08          11.72          40.93
   0.01026              -19.93          13.11          74.29          35.52         -10.32         -6.709           82.8         -7.381         -14.05          11.74          40.92
   0.01231              -19.93          13.11          74.29          35.53         -10.32         -6.707           82.8         -7.378         -14.01          11.75          40.92
   0.01437              -19.93          13.11          74.29          35.53         -10.32         -6.705           82.8         -7.374         -13.97          11.76          40.92
   0.01642              -19.93          13.11          74.29          35.54         -10.31         -6.703          82.81         -7.371         -13.93          11.78          40.92
   0.01847              -19.93          13.11          74.29          35.55         -10.31           -6.7          82.81         -7.367         -13.89          11.79          40.92
   0.02052              -19.93          13.11          74.29          35.56          -10.3         -6.698          82.81         -7.362         -13.84          11.81          40.91
   0.02258              -19.94          13.11          74.29          35.57          -10.3         -6.695          82.81         -7.358         -13.79          11.82          40.91
   0.02463              -19.94          13.11          74.29          35.58         -10.29         -6.692          82.81         -7.353         -13.74          11.84          40.91
   0.02668              -19.94          13.11           74.3          35.59         -10.28         -6.688          82.82         -7.348         -13.68          11.86           40.9
   0.02873              -19.94          13.11           74.3           35.6         -10.28         -6.685          82.82         -7.342         -13.62          11.89           40.9
   0.03079              -19.94           13.1           74.3          35.61         -10.27         -6.681          82.82         -7.336         -13.55          11.91           40.9
   0.03284              -19.95           13.1           74.3          35.63         -10.26         -6.677          82.83         -7.329         -13.48          11.94          40.89
   0.03489              -19.95           13.1           74.3          35.64         -10.25         -6.672          82.83         -7.322          -13.4          11.96          40.89
   0.03694              -19.95           13.1           74.3          35.66         -10.24         -6.667          82.83         -7.313         -13.31           12.0          40.88
     0.039              -19.96           13.1           74.3          35.68         -10.23         -6.662          82.84         -7.305         -13.21          12.03          40.88
   0.04105              -19.96           13.1           74.3           35.7         -10.22         -6.656          82.84         -7.295         -13.11          12.07          40.87
